<svg xmlns="http://www.w3.org/2000/svg" viewBox="0 0 135.15 65.82"><title>LOGO </title><polygon points="29.85 0.74 0.74 0.74 0.74 29.2 0 29.2 0 0 29.85 0 29.85 0.74"/><polygon points="37.97 9.75 8.87 9.75 8.87 38.2 8.12 38.2 8.12 9.01 37.97 9.01 37.97 9.75"/><polygon points="105.3 65.07 134.41 65.07 134.41 36.62 135.15 36.62 135.15 65.82 105.3 65.82 105.3 65.07"/><polygon points="96.23 56.04 125.34 56.04 125.34 27.59 126.08 27.59 126.08 56.79 96.23 56.79 96.23 56.04"/><path d="M910.38,550.88V529.12h2.77l6.32,11A64.68,64.68,0,0,1,923,547.2l.06,0c-.24-2.91-.3-5.56-.3-8.95v-9.1h2.4v21.76H922.6l-6.26-11a71,71,0,0,1-3.68-7.27l-.09,0c.15,2.75.2,5.37.2,9v9.3Z" transform="translate(-891.7 -508.26)" fill="#222220"/><path d="M933.15,544l-2,6.84h-2.64l6.7-21.76h3.07L945,550.88h-2.72l-2.1-6.84Zm6.46-2.2-1.93-6.26c-.44-1.43-.73-2.72-1-4h-.06c-.29,1.3-.61,2.62-1,3.94l-1.93,6.3Z" transform="translate(-891.7 -508.26)" fill="#222220"/><path d="M964.76,539.77c0,7.5-4.13,11.47-9.15,11.47-5.21,0-8.86-4.46-8.86-11,0-6.91,3.88-11.43,9.15-11.43S964.76,533.32,964.76,539.77Zm-15.29.36c0,4.65,2.28,8.82,6.28,8.82s6.32-4.11,6.32-9.05c0-4.32-2.05-8.85-6.29-8.85S949.47,535.35,949.47,540.13Z" transform="translate(-891.7 -508.26)" fill="#222220"/><path d="M985,541.32c-.15-3-.32-6.68-.29-9.39h-.09c-.67,2.55-1.49,5.26-2.49,8.26l-3.48,10.56h-1.93l-3.18-10.36c-.94-3.07-1.73-5.88-2.28-8.46h-.06c-.06,2.71-.21,6.36-.38,9.62l-.53,9.33h-2.43l1.38-21.76h3.24l3.37,10.52c.82,2.69,1.49,5.07,2,7.34h.09c.5-2.2,1.2-4.59,2.08-7.34l3.51-10.52h3.24L988,550.88h-2.49Z" transform="translate(-891.7 -508.26)" fill="#222220"/><path d="M995.42,544l-2,6.84h-2.63l6.69-21.76h3.07l6.73,21.76h-2.72l-2.11-6.84Zm6.47-2.2-1.93-6.26c-.44-1.43-.73-2.72-1-4h-.06c-.29,1.3-.61,2.62-1,3.94l-1.93,6.3Z" transform="translate(-891.7 -508.26)" fill="#222220"/></svg>